<svg id="SvgjsSvg1110" width="649" height="308" xmlns="http://www.w3.org/2000/svg" version="1.1" xmlns:xlink="http://www.w3.org/1999/xlink" xmlns:svgjs="http://svgjs.com/svgjs"><defs id="SvgjsDefs1111"><marker id="SvgjsMarker1156" markerWidth="16" markerHeight="12" refX="16" refY="6" viewBox="0 0 16 12" orient="auto" markerUnits="userSpaceOnUse" stroke-dasharray="0,0"><path id="SvgjsPath1157" d="M0,2 L14,6 L0,11 L0,2" fill="#323232" stroke="#323232" stroke-width="2"></path></marker><marker id="SvgjsMarker1166" markerWidth="16" markerHeight="12" refX="16" refY="6" viewBox="0 0 16 12" orient="auto" markerUnits="userSpaceOnUse" stroke-dasharray="0,0"><path id="SvgjsPath1167" d="M0,2 L14,6 L0,11 L0,2" fill="#323232" stroke="#323232" stroke-width="2"></path></marker><marker id="SvgjsMarker1170" markerWidth="16" markerHeight="12" refX="16" refY="6" viewBox="0 0 16 12" orient="auto" markerUnits="userSpaceOnUse" stroke-dasharray="0,0"><path id="SvgjsPath1171" d="M0,2 L14,6 L0,11 L0,2" fill="#323232" stroke="#323232" stroke-width="2"></path></marker><marker id="SvgjsMarker1174" markerWidth="16" markerHeight="12" refX="16" refY="6" viewBox="0 0 16 12" orient="auto" markerUnits="userSpaceOnUse" stroke-dasharray="0,0"><path id="SvgjsPath1175" d="M0,2 L14,6 L0,11 L0,2" fill="#323232" stroke="#323232" stroke-width="2"></path></marker><marker id="SvgjsMarker1178" markerWidth="16" markerHeight="12" refX="16" refY="6" viewBox="0 0 16 12" orient="auto" markerUnits="userSpaceOnUse" stroke-dasharray="0,0"><path id="SvgjsPath1179" d="M0,2 L14,6 L0,11 L0,2" fill="#323232" stroke="#323232" stroke-width="2"></path></marker><marker id="SvgjsMarker1182" markerWidth="16" markerHeight="12" refX="16" refY="6" viewBox="0 0 16 12" orient="auto" markerUnits="userSpaceOnUse" stroke-dasharray="0,0"><path id="SvgjsPath1183" d="M0,2 L14,6 L0,11 L0,2" fill="#323232" stroke="#323232" stroke-width="2"></path></marker><marker id="SvgjsMarker1196" markerWidth="16" markerHeight="12" refX="16" refY="6" viewBox="0 0 16 12" orient="auto" markerUnits="userSpaceOnUse" stroke-dasharray="0,0"><path id="SvgjsPath1197" d="M0,2 L14,6 L0,11 L0,2" fill="#323232" stroke="#323232" stroke-width="2"></path></marker><marker id="SvgjsMarker1204" markerWidth="16" markerHeight="12" refX="16" refY="6" viewBox="0 0 16 12" orient="auto" markerUnits="userSpaceOnUse" stroke-dasharray="0,0"><path id="SvgjsPath1205" d="M0,2 L14,6 L0,11 L0,2" fill="#323232" stroke="#323232" stroke-width="2"></path></marker></defs><g id="SvgjsG1112" transform="translate(198,25)"><path id="SvgjsPath1113" d="M 0 16.5C 0 -5.5 137 -5.5 137 16.5C 137 38.5 0 38.5 0 16.5Z" stroke="rgba(50,50,50,1)" stroke-width="2" fill-opacity="1" fill="#ffffff"></path><g id="SvgjsG1114"><text id="SvgjsText1115" font-family="微软雅黑" text-anchor="middle" font-size="13px" width="117px" fill="#323232" font-weight="400" align="middle" lineHeight="125%" anchor="middle" family="微软雅黑" size="13px" weight="400" font-style="" opacity="1" y="6.875" transform="rotate(0)"><tspan id="SvgjsTspan1116" dy="16" x="68.5"><tspan id="SvgjsTspan1117" style="text-decoration:;">Injection</tspan></tspan></text></g></g><g id="SvgjsG1118" transform="translate(25,250)"><path id="SvgjsPath1119" d="M 0 16.5C 0 -5.5 137 -5.5 137 16.5C 137 38.5 0 38.5 0 16.5Z" stroke="rgba(50,50,50,1)" stroke-width="2" fill-opacity="1" fill="#ffffff"></path><g id="SvgjsG1120"><text id="SvgjsText1121" font-family="微软雅黑" text-anchor="middle" font-size="13px" width="117px" fill="#323232" font-weight="400" align="middle" lineHeight="125%" anchor="middle" family="微软雅黑" size="13px" weight="400" font-style="" opacity="1" y="6.875" transform="rotate(0)"><tspan id="SvgjsTspan1122" dy="16" x="68.5"><tspan id="SvgjsTspan1123" style="text-decoration:;">Container</tspan></tspan></text></g></g><g id="SvgjsG1124" transform="translate(198,250)"><path id="SvgjsPath1125" d="M 0 16.5C 0 -5.5 137 -5.5 137 16.5C 137 38.5 0 38.5 0 16.5Z" stroke="rgba(50,50,50,1)" stroke-width="2" fill-opacity="1" fill="#ffffff"></path><g id="SvgjsG1126"><text id="SvgjsText1127" font-family="微软雅黑" text-anchor="middle" font-size="13px" width="117px" fill="#323232" font-weight="400" align="middle" lineHeight="125%" anchor="middle" family="微软雅黑" size="13px" weight="400" font-style="" opacity="1" y="6.875" transform="rotate(0)"><tspan id="SvgjsTspan1128" dy="16" x="68.5"><tspan id="SvgjsTspan1129" style="text-decoration:;">InstanceMeta</tspan></tspan></text></g></g><g id="SvgjsG1130" transform="translate(440,135)"><path id="SvgjsPath1131" d="M 0 16.5C 0 -5.5 137 -5.5 137 16.5C 137 38.5 0 38.5 0 16.5Z" stroke="rgba(50,50,50,1)" stroke-width="2" fill-opacity="1" fill="#ffffff"></path><g id="SvgjsG1132"><text id="SvgjsText1133" font-family="微软雅黑" text-anchor="middle" font-size="13px" width="117px" fill="#323232" font-weight="400" align="middle" lineHeight="125%" anchor="middle" family="微软雅黑" size="13px" weight="400" font-style="" opacity="1" y="6.875" transform="rotate(0)"><tspan id="SvgjsTspan1134" dy="16" x="68.5"><tspan id="SvgjsTspan1135" style="text-decoration:;">Instance</tspan></tspan></text></g></g><g id="SvgjsG1136" transform="translate(444.5,250)"><path id="SvgjsPath1137" d="M 0 16.5C 0 -5.5 137 -5.5 137 16.5C 137 38.5 0 38.5 0 16.5Z" stroke="rgba(50,50,50,1)" stroke-width="2" fill-opacity="1" fill="#ffffff"></path><g id="SvgjsG1138"><text id="SvgjsText1139" font-family="微软雅黑" text-anchor="middle" font-size="13px" width="117px" fill="#323232" font-weight="400" align="middle" lineHeight="125%" anchor="middle" family="微软雅黑" size="13px" weight="400" font-style="" opacity="1" y="6.875" transform="rotate(0)"><tspan id="SvgjsTspan1140" dy="16" x="68.5"><tspan id="SvgjsTspan1141" style="text-decoration:;">Token</tspan></tspan></text></g></g><g id="SvgjsG1142" transform="translate(449,73)"><path id="SvgjsPath1143" d="M 0 0L 128 0L 128 29L 0 29Z" stroke="rgba(50,50,50,1)" stroke-width="2" fill-opacity="1" fill="#ffffff"></path><g id="SvgjsG1144"><text id="SvgjsText1145" font-family="微软雅黑" text-anchor="middle" font-size="13px" width="108px" fill="#323232" font-weight="400" align="middle" lineHeight="125%" anchor="middle" family="微软雅黑" size="13px" weight="400" font-style="" opacity="1" y="4.875" transform="rotate(0)"><tspan id="SvgjsTspan1146" dy="16" x="64"><tspan id="SvgjsTspan1147" style="text-decoration:;">@Destroy</tspan></tspan></text></g></g><g id="SvgjsG1148" transform="translate(198,135)"><path id="SvgjsPath1149" d="M 0 16.5C 0 -5.5 137 -5.5 137 16.5C 137 38.5 0 38.5 0 16.5Z" stroke="rgba(50,50,50,1)" stroke-width="2" fill-opacity="1" fill="#ffffff"></path><g id="SvgjsG1150"><text id="SvgjsText1151" font-family="微软雅黑" text-anchor="middle" font-size="13px" width="117px" fill="#323232" font-weight="400" align="middle" lineHeight="125%" anchor="middle" family="微软雅黑" size="13px" weight="400" font-style="" opacity="1" y="6.875" transform="rotate(0)"><tspan id="SvgjsTspan1152" dy="16" x="68.5"><tspan id="SvgjsTspan1153" style="text-decoration:;">Class</tspan></tspan></text></g></g><g id="SvgjsG1154"><path id="SvgjsPath1155" d="M266.5 58L266.5 96.5L266.5 96.5L266.5 135" stroke="#323232" stroke-width="2" fill="none" marker-end="url(#SvgjsMarker1156)"></path><rect id="SvgjsRect1158" width="68" height="32" x="232.5" y="69.95" fill="#ffffff"></rect><text id="SvgjsText1159" font-family="微软雅黑" text-anchor="middle" font-size="13px" width="68px" fill="#323232" font-weight="400" align="top" lineHeight="16px" anchor="middle" family="微软雅黑" size="13px" weight="400" font-style="" opacity="1" y="68.325" transform="rotate(0)"><tspan id="SvgjsTspan1160" dy="16" x="266.5"><tspan id="SvgjsTspan1161" style="text-decoration:;">@Inject</tspan></tspan><tspan id="SvgjsTspan1162" dy="16" x="266.5"><tspan id="SvgjsTspan1163" style="text-decoration:;">@InjectRef</tspan></tspan></text></g><g id="SvgjsG1164"><path id="SvgjsPath1165" d="M508.5 168L508.5 209L266.5 209L266.5 250" stroke="#323232" stroke-width="2" fill="none" marker-end="url(#SvgjsMarker1166)"></path></g><g id="SvgjsG1168"><path id="SvgjsPath1169" d="M266.5 168L266.5 209L266.5 209L266.5 250" stroke="#323232" stroke-width="2" fill="none" marker-end="url(#SvgjsMarker1170)"></path></g><g id="SvgjsG1172"><path id="SvgjsPath1173" d="M162 266.5L180 266.5L180 266.5L198 266.5" stroke="#323232" stroke-width="2" fill="none" marker-end="url(#SvgjsMarker1174)"></path></g><g id="SvgjsG1176"><path id="SvgjsPath1177" d="M335 266.5L389.75 266.5L389.75 266.5L444.5 266.5" stroke="#323232" stroke-width="2" fill="none" marker-end="url(#SvgjsMarker1178)"></path></g><g id="SvgjsG1180"><path id="SvgjsPath1181" d="M581.5 266.5L611.5 266.5L611.5 151.5L577 151.5" stroke="#323232" stroke-width="2" fill="none" marker-end="url(#SvgjsMarker1182)"></path><rect id="SvgjsRect1184" width="43" height="16" x="590" y="198.75" fill="#ffffff"></rect><text id="SvgjsText1185" font-family="微软雅黑" text-anchor="middle" font-size="13px" width="43px" fill="#323232" font-weight="400" align="top" lineHeight="16px" anchor="middle" family="微软雅黑" size="13px" weight="400" font-style="" opacity="1" y="197.125" transform="rotate(0)"><tspan id="SvgjsTspan1186" dy="16" x="611.5"><tspan id="SvgjsTspan1187" style="text-decoration:;">factory</tspan></tspan></text></g><g id="SvgjsG1188" transform="translate(449,29)"><path id="SvgjsPath1189" d="M 0 0L 128 0L 128 29L 0 29Z" stroke="rgba(50,50,50,1)" stroke-width="2" fill-opacity="1" fill="#ffffff"></path><g id="SvgjsG1190"><text id="SvgjsText1191" font-family="微软雅黑" text-anchor="middle" font-size="13px" width="108px" fill="#323232" font-weight="400" align="middle" lineHeight="125%" anchor="middle" family="微软雅黑" size="13px" weight="400" font-style="" opacity="1" y="4.875" transform="rotate(0)"><tspan id="SvgjsTspan1192" dy="16" x="64"><tspan id="SvgjsTspan1193" style="text-decoration:;">@Already</tspan></tspan></text></g></g><g id="SvgjsG1194"><path id="SvgjsPath1195" d="M335 151.5L387.5 151.5L387.5 151.5L440 151.5" stroke="#323232" stroke-width="2" fill="none" marker-end="url(#SvgjsMarker1196)"></path><rect id="SvgjsRect1198" width="57" height="16" x="359" y="143.5" fill="#ffffff"></rect><text id="SvgjsText1199" font-family="微软雅黑" text-anchor="middle" font-size="13px" width="57px" fill="#323232" font-weight="400" align="top" lineHeight="16px" anchor="middle" family="微软雅黑" size="13px" weight="400" font-style="" opacity="1" y="141.875" transform="rotate(0)"><tspan id="SvgjsTspan1200" dy="16" x="387.5"><tspan id="SvgjsTspan1201" style="text-decoration:;">@Service</tspan></tspan></text></g><g id="SvgjsG1202"><path id="SvgjsPath1203" d="M198 151.5L93.5 151.5L93.5 250" stroke="#323232" stroke-width="2" fill="none" marker-end="url(#SvgjsMarker1204)"></path><rect id="SvgjsRect1206" width="74" height="48" x="55.5" y="171.825" fill="#ffffff"></rect><text id="SvgjsText1207" font-family="微软雅黑" text-anchor="middle" font-size="13px" width="74px" fill="#323232" font-weight="400" align="top" lineHeight="16px" anchor="middle" family="微软雅黑" size="13px" weight="400" font-style="" opacity="1" y="170.2" transform="rotate(0)"><tspan id="SvgjsTspan1208" dy="16" x="92.5"><tspan id="SvgjsTspan1209" style="text-decoration:;">@Root</tspan></tspan><tspan id="SvgjsTspan1210" dy="16" x="92.5"><tspan id="SvgjsTspan1211" style="text-decoration:;">@Container</tspan></tspan><tspan id="SvgjsTspan1212" dy="16" x="92.5"><tspan id="SvgjsTspan1213" style="text-decoration:;">Concat</tspan></tspan></text></g></svg>